# xmcd CD database file
#
# Track frame offsets:
#	150
#	29260
#	42520
#	52790
#	73962
#	88487
#	109015
#	128177
#	145902
#	171730
#	188330
#	204907
#	226842
#	242520
#	261750
#
# Disc length: 3674 seconds
#
# Revision: 4
# Processed by: cddbd v1.5.2PL0 Copyright (c) Steve Scherf et al.
# Submitted via: CDex 1.51
#
DISCID=d30e580f
DTITLE=Various Artist - Blues Story #11 - Le Blues Blanc
DYEAR=1998
DGENRE=Blues
TTITLE0=Duke Robillard - Duke's Mood
TTITLE1=J.J. Cale - I Got The Same Old Blues
TTITLE2=Canned Heat - Bullfrog Blues
TTITLE3=Mike Bloomfield - Frankie and Johnny - Live
TTITLE4=Roy Buchanan - The Chokin' Kind
TTITLE5=Elvin Bishop - Another Mule Kickin' In Your Stall
TTITLE6=Jimmy Thackery and The Drivers - You Got Work To Do
TTITLE7=Johnny Winter - Looking For Trouble
TTITLE8=Robben Ford - I Just Want To Make Love To You
TTITLE9=Tommy Castro - This Soul Is Mine
TTITLE10=Neal Black and The Healers - It Hurts Me Too - Live
TTITLE11=Roy Rogers and Norton Buffalo - Down In Mississipi - Live
TTITLE12=Monster Mike Welsh - Did She Say
TTITLE13=Charlie Musselwhite - River Hip Mama
TTITLE14=Sonny Landreth - Zydeco Shuffle
EXTD=YEAR: 1998
EXTT0=
EXTT1=
EXTT2=
EXTT3=
EXTT4=
EXTT5=
EXTT6=
EXTT7=
EXTT8=
EXTT9=
EXTT10=
EXTT11=
EXTT12=
EXTT13=
EXTT14=
PLAYORDER=
